HIERARCHY
ROOT Hips
{
    OFFSET 0.000000 0.000000 0.000000
    CHANNELS 6 Xposition Yposition Zposition Zrotation Xrotation Yrotation
    JOINT Spine
    {
        OFFSET -0.000000 14.517291 0.000000
        CHANNELS 3 Zrotation Xrotation Yrotation
        JOINT Spine1
        {
            OFFSET -0.000000 37.558300 0.000000
            CHANNELS 3 Zrotation Xrotation Yrotation
            JOINT Neck
            {
                OFFSET -0.000000 37.404057 3.400369
                CHANNELS 3 Zrotation Xrotation Yrotation
                JOINT Head
                {
                    OFFSET -0.000000 24.785618 -3.540803
                    CHANNELS 3 Zrotation Xrotation Yrotation
                    End Site
                    {
                        OFFSET -0.000000 35.408028 0.000000
                    }
                }
            }
            JOINT LeftShoulder
            {
                OFFSET 6.992933 33.973492 -0.192664
                CHANNELS 3 Zrotation Xrotation Yrotation
                JOINT LeftArm
                {
                    OFFSET 21.527611 0.000000 0.000000
                    CHANNELS 3 Zrotation Xrotation Yrotation
                    JOINT LeftForeArm
                    {
                        OFFSET 56.353916 0.000000 0.000000
                        CHANNELS 3 Zrotation Xrotation Yrotation
                        JOINT LeftHand
                        {
                            OFFSET 47.774071 0.000000 0.000000
                            CHANNELS 3 Zrotation Xrotation Yrotation
                            End Site
                            {
                                OFFSET 26.556021 0.000000 0.000000
                            }
                        }
                    }
                }
            }
            JOINT RightShoulder
            {
                OFFSET -7.065357 33.973492 -0.192664
                CHANNELS 3 Zrotation Xrotation Yrotation
                JOINT RightArm
                {
                    OFFSET -21.527611 0.000000 0.000000
                    CHANNELS 3 Zrotation Xrotation Yrotation
                    JOINT RightForeArm
                    {
                        OFFSET -56.353916 0.000000 0.000000
                        CHANNELS 3 Zrotation Xrotation Yrotation
                        JOINT RightHand
                        {
                            OFFSET -47.774071 0.000000 0.000000
                            CHANNELS 3 Zrotation Xrotation Yrotation
                            End Site
                            {
                                OFFSET -26.556021 0.000000 0.000000
                            }
                        }
                    }
                }
            }
        }
    }
    JOINT LeftUpLeg
    {
        OFFSET 17.704014 0.000000 0.000000
        CHANNELS 3 Zrotation Xrotation Yrotation
        JOINT LeftLeg
        {
            OFFSET -0.000000 -81.181816 0.000000
            CHANNELS 3 Zrotation Xrotation Yrotation
            JOINT LeftFoot
            {
                OFFSET -0.000000 -62.821102 0.000000
                CHANNELS 3 Zrotation Xrotation Yrotation
                JOINT LeftToeBase
                {
                    OFFSET -0.000000 -11.507608 26.556021
                    CHANNELS 3 Zrotation Xrotation Yrotation
                    End Site
                    {
                        OFFSET -0.000000 0.000000 7.081605
                    }
                }
            }
        }
    }
    JOINT RightUpLeg
    {
        OFFSET -17.704014 0.000000 0.000000
        CHANNELS 3 Zrotation Xrotation Yrotation
        JOINT RightLeg
        {
            OFFSET -0.000000 -81.181816 0.000000
            CHANNELS 3 Zrotation Xrotation Yrotation
            JOINT RightFoot
            {
                OFFSET -0.000000 -62.821102 0.000000
                CHANNELS 3 Zrotation Xrotation Yrotation
                JOINT RightToeBase
                {
                    OFFSET -0.000000 -11.507608 26.556021
                    CHANNELS 3 Zrotation Xrotation Yrotation
                    End Site
                    {
                        OFFSET -0.000000 0.000000 7.081605
                    }
                }
            }
        }
    }
}
MOTION
Frames:    10
Frame Time:    0.008333
16.240389    147.189911    47.171749    2.538914    2.216703    -45.112896    -0.437112    1.315818    -2.238382    0.716169    2.519582    -0.763965    14.377473    1.330498    6.608062    -7.033675    2.592675    4.054824    11.987860    3.515414    -17.300379    -10.241322    -3.063297    -22.609871    12.684121    -2.670983    -50.985279    -3.361962    4.734780    -43.260120    -9.681047    -0.669067    -7.025446    27.658869    -21.772053    38.448322    7.258016    -18.844175    107.111969    12.694317    -24.933460    29.022131    30.010883    -32.718170    8.351823    -20.782202    33.665741    -11.800955    -11.671900    -6.202789    41.658562    0.000000    0.000000    0.000000    -8.026560    -16.516582    14.145370    3.252910    52.929432    -0.910740    5.360090    -37.044559    -4.823837    0.000000    0.000000    0.000000    
16.175301    147.205536    47.243221    2.555599    2.193294    -45.166138    -0.453711    1.306476    -2.239047    0.755455    2.496331    -0.764950    14.290502    1.316452    6.602960    -6.979453    2.543414    4.063358    11.901723    3.500006    -17.291149    -10.184281    -3.112672    -22.521774    12.793797    -2.186095    -51.475948    -2.637532    5.003415    -41.405319    -9.747786    -0.661543    -7.076681    27.736229    -21.827810    38.486908    7.228534    -18.835815    107.140564    12.625146    -24.909315    29.028316    29.992228    -32.668140    8.384942    -20.781919    33.706894    -11.790741    -11.645528    -6.234533    41.648567    0.000000    0.000000    0.000000    -8.057689    -16.483772    14.183528    3.289603    52.909519    -0.923844    5.351574    -37.041576    -4.834116    0.000000    0.000000    0.000000    
16.117659    147.223114    47.310020    2.576110    2.170961    -45.208103    -0.472639    1.301428    -2.258716    0.751688    2.459447    -0.771234    14.292708    1.332917    6.607086    -6.964005    2.483526    4.067728    11.907700    3.510325    -17.276438    -10.197539    -3.106427    -22.510479    12.769979    -2.242717    -51.496735    -2.644916    4.938940    -41.325645    -9.739716    -0.670448    -7.077236    27.743614    -21.857883    38.459869    7.204342    -18.904715    107.183548    12.696455    -24.930664    29.073748    29.961567    -32.632000    8.402859    -20.778387    33.743328    -11.778291    -11.615821    -6.255143    41.662861    0.000000    0.000000    0.000000    -8.099448    -16.448175    14.155343    3.245384    52.879181    -0.891410    5.412696    -37.038479    -4.749680    0.000000    0.000000    0.000000    
16.062752    147.250275    47.378941    2.591282    2.146290    -45.254574    -0.500926    1.308606    -2.273228    0.771576    2.414931    -0.776292    14.285056    1.325888    6.603745    -6.952870    2.462170    4.064470    11.905862    3.528461    -17.268225    -10.214020    -3.103774    -22.496384    12.805902    -2.238040    -51.464199    -2.614774    4.950780    -41.540707    -9.741246    -0.667681    -7.090509    27.758867    -21.907600    38.455162    7.191380    -18.946707    107.227440    12.680777    -24.962711    29.101810    29.929750    -32.584827    8.410666    -20.769430    33.771236    -11.783669    -11.586740    -6.274710    41.684475    0.000000    0.000000    0.000000    -8.141617    -16.404932    14.152978    3.236510    52.832630    -0.883431    5.444853    -37.014210    -4.684233    0.000000    0.000000    0.000000    
16.007521    147.275635    47.450485    2.606072    2.124780    -45.317001    -0.503130    1.307792    -2.278975    0.727373    2.474970    -0.777709    14.330618    1.074270    6.640191    -6.939421    2.600493    4.073697    11.984982    3.436314    -17.130919    -10.282142    -3.101082    -22.600958    12.525534    -2.752300    -51.211933    -3.462176    4.640871    -43.076759    -9.703135    -0.772321    -7.215360    27.791582    -21.869062    38.513638    7.149904    -19.071171    107.303841    12.861054    -25.003304    29.072550    29.911789    -32.523991    8.413672    -20.782000    33.788609    -11.733664    -11.559255    -6.304338    41.662354    0.000000    0.000000    0.000000    -8.184894    -16.365570    14.157864    3.237602    52.780025    -0.877552    5.483875    -36.994541    -4.621050    0.000000    0.000000    0.000000    
15.961501    147.301437    47.513874    2.625476    2.116799    -45.385811    -0.509149    1.308212    -2.283087    0.710751    2.428732    -0.778446    14.355840    1.068912    6.638707    -6.943378    2.574829    4.065841    12.000639    3.451611    -17.119728    -10.272811    -3.104165    -22.558544    12.740685    -2.330991    -51.630630    -2.822239    4.918954    -41.231953    -9.677122    -0.781950    -7.216478    27.806005    -21.927431    38.518162    7.108706    -19.121981    107.321983    12.758372    -25.030390    29.050690    29.908623    -32.477425    8.417781    -20.803474    33.797592    -11.681219    -11.544211    -6.336648    41.681103    0.000000    0.000000    0.000000    -8.218782    -16.347044    14.146258    3.209137    52.730812    -0.835469    5.525208    -36.968815    -4.549556    0.000000    0.000000    0.000000    
15.918409    147.323303    47.576637    2.649969    2.115041    -45.446728    -0.526809    1.288820    -2.290457    0.714074    2.401064    -0.780803    14.387399    1.057351    6.639062    -6.968115    2.564263    4.056640    12.019455    3.458390    -17.117825    -10.274594    -3.101731    -22.550646    12.766618    -2.300742    -51.570026    -2.728887    4.926357    -41.526134    -9.664752    -0.799573    -7.223161    27.819372    -21.973736    38.521778    7.099757    -19.154808    107.345955    12.750248    -25.055340    29.061867    29.907757    -32.441677    8.403132    -20.841112    33.804161    -11.636067    -11.522290    -6.369854    41.712170    0.000000    0.000000    0.000000    -8.261305    -16.341492    14.119676    3.206269    52.693741    -0.798863    5.525592    -36.945251    -4.524799    0.000000    0.000000    0.000000    
15.876812    147.344437    47.637348    2.663449    2.110921    -45.508862    -0.537332    1.280675    -2.300501    0.719530    2.370600    -0.784130    14.424161    1.063462    6.640123    -7.019460    2.541515    4.045738    12.023286    3.464450    -17.135532    -10.257760    -3.088419    -22.516121    12.746033    -2.349308    -51.592617    -2.776789    4.887133    -41.456394    -9.667020    -0.812880    -7.220926    27.857882    -22.043520    38.524113    7.082597    -19.163841    107.368668    12.742599    -25.050968    29.037163    29.908270    -32.394989    8.396235    -20.864164    33.807610    -11.594180    -11.499394    -6.409712    41.737072    0.000000    0.000000    0.000000    -8.295601    -16.325672    14.062818    3.132074    52.653320    -0.691535    5.574535    -36.916515    -4.443175    0.000000    0.000000    0.000000    
15.835678    147.362686    47.694683    2.670690    2.105969    -45.572990    -0.514279    1.290792    -2.310028    0.742490    2.339422    -0.787156    14.257019    1.010720    6.623744    -6.888379    2.552376    4.062099    11.910118    3.428314    -17.141989    -10.169820    -2.913038    -22.464527    12.565495    -2.995608    -51.235912    -3.614131    4.481084    -43.095760    -9.766298    -0.800547    -7.281731    27.986067    -22.106997    38.604401    7.119210    -19.116056    107.463188    12.785789    -25.060177    28.993006    29.918777    -32.346626    8.388356    -20.901119    33.816990    -11.549539    -11.474929    -6.447072    41.756382    0.000000    0.000000    0.000000    -8.330077    -16.307478    14.030367    3.143356    52.608479    -0.707619    5.584846    -36.883709    -4.368414    0.000000    0.000000    0.000000    
15.793633    147.381165    47.747627    2.680349    2.109250    -45.647331    -0.537105    1.275002    -2.310130    0.772845    2.329969    -0.787785    14.258403    0.993901    6.626358    -6.894721    2.551828    4.061675    11.910180    3.414111    -17.149973    -10.152122    -2.809544    -22.453180    12.937838    -2.614385    -51.519035    -2.968444    4.774136    -41.296360    -9.778962    -0.816354    -7.294088    28.021236    -22.140038    38.626148    7.061469    -19.185656    107.469551    12.798851    -25.054203    28.980270    29.939163    -32.299683    8.398870    -20.924328    33.831341    -11.522995    -11.458354    -6.493075    41.784866    0.000000    0.000000    0.000000    -8.354871    -16.299042    14.008229    3.121759    52.563766    -0.646580    5.599849    -36.862743    -4.317753    0.000000    0.000000    0.000000    
